# xmcd CD database file
#
# Track frame offsets:
#	150
#	62641
#	99899
#	156588
#	200100
#	263518
#
# Disc length: 4146 seconds
#
# Revision: 0
# Processed by: cddbd v1.5.1PL0 Copyright (c) Steve Scherf et al.
# Submitted via: CDex 1.51
#
DISCID=4d103006
DTITLE=Antonello Salis_Sandro Satta - Live @ Radiotre
DYEAR=2001
DGENRE=Jazz
TTITLE0=Linea AZ Monk
TTITLE1=Asitrane
TTITLE2=Mercoledi 13 Settembre
TTITLE3=Knock Out
TTITLE4=E Se Non Fosse Così
TTITLE5=Luna Rock
EXTD=YEAR: 2001
EXTT0=
EXTT1=
EXTT2=
EXTT3=
EXTT4=
EXTT5=
PLAYORDER=
